<svg width="81" height="79" viewBox="0 0 81 79" fill="none" xmlns="http://www.w3.org/2000/svg">
<path d="M80.8444 39.1307C80.8444 39.9264 80.5283 40.6894 79.9657 41.2521C79.4031 41.8147 78.64 42.1307 77.8444 42.1307H10.8036L41.6786 73.0107C41.9734 73.2854 42.2098 73.6166 42.3738 73.9846C42.5377 74.3526 42.6259 74.7498 42.633 75.1526C42.6401 75.5555 42.566 75.9556 42.4151 76.3291C42.2642 76.7027 42.0397 77.042 41.7548 77.3269C41.4699 77.6118 41.1306 77.8363 40.757 77.9872C40.3835 78.1381 39.9834 78.2122 39.5806 78.2051C39.1777 78.198 38.7805 78.1098 38.4125 77.9459C38.0445 77.7819 37.7133 77.5455 37.4386 77.2507L1.43864 41.2507C0.876837 40.6882 0.561279 39.9257 0.561279 39.1307C0.561279 38.3357 0.876837 37.5732 1.43864 37.0107L37.4386 1.01073C38.0073 0.480813 38.7595 0.192321 39.5367 0.206034C40.3139 0.219747 41.0555 0.534594 41.6051 1.08425C42.1548 1.6339 42.4696 2.37544 42.4833 3.15264C42.4971 3.92985 42.2086 4.68203 41.6786 5.25073L10.8036 36.1307H77.8444C78.64 36.1307 79.4031 36.4468 79.9657 37.0094C80.5283 37.572 80.8444 38.3351 80.8444 39.1307Z" fill="#66676B"/>
</svg>
